<?xml version="1.0" encoding="utf-8"?>
<!-- Generator: Adobe Illustrator 16.0.0, SVG Export Plug-In . SVG Version: 6.00 Build 0)  -->
<!DOCTYPE svg PUBLIC "-//W3C//DTD SVG 1.1//EN" "http://www.w3.org/Graphics/SVG/1.1/DTD/svg11.dtd">
<svg version="1.1" id="Layer_1" xmlns="http://www.w3.org/2000/svg" xmlns:xlink="http://www.w3.org/1999/xlink" x="0px" y="0px"
	 width="497.315px" height="82.55px" viewBox="0 0 497.315 82.55" enable-background="new 0 0 497.315 82.55" xml:space="preserve">
<g>
	<g>
		<polygon fill="#799900" points="26.822,53.908 35.144,78.923 40.062,64.326 48.795,38.248 26.684,53.797 		"/>
		<polygon fill="#95D600" points="5.983,38.248 26.684,53.797 48.795,38.248 48.795,38.248 		"/>
		<path fill="#051D49" d="M76.384,13.805c5.884,5.853,8.906,14.329,7.574,23.002c-0.102,0.599-0.206,1.199-0.331,1.805
			c-0.703,3.083-1.91,5.919-3.503,8.445c-1.156,1.851-2.56,3.536-4.112,5.019c-5.229,4.991-12.406,7.781-19.92,7.363
			c-1.466-0.082-2.928-0.273-4.393-0.6c-0.874-0.206-1.719-0.446-2.554-0.714l6.774-19.894l1.888-5.731H30.832
			c0.022-1.784,0.234-3.779,0.647-5.598c0.041-0.185,0.09-0.362,0.14-0.549c1.209-4.937,3.741-9.221,7.121-12.567
			c6.267-6.196,15.437-9.161,24.662-7.101c0.767,0.173,1.527,0.384,2.259,0.61c0.582,0.191,1.145,0.387,1.694,0.606
			C70.806,9.262,73.853,11.296,76.384,13.805"/>
	</g>
</g>
<path fill="#051D49" d="M127.894,59.503l-2.869-8.604H107.75l-2.937,8.604h-9.902l17.687-48.62h7.442l17.753,48.62H127.894z
	 M116.559,25.224l-6.146,17.686H122.5L116.559,25.224z"/>
<path fill="#051D49" d="M153.948,59.914c-7.101,0-15.91-3.824-15.91-18.232c0-14.409,8.809-18.163,15.91-18.163
	c4.917,0,8.604,1.501,11.745,4.779l-6.01,6.007c-1.843-1.979-3.413-2.799-5.735-2.799c-2.117,0-3.756,0.752-5.053,2.322
	c-1.366,1.708-1.981,4.097-1.981,7.854c0,3.756,0.615,6.213,1.981,7.92c1.297,1.57,2.936,2.323,5.053,2.323
	c2.322,0,3.892-0.82,5.735-2.801l6.01,5.94C162.552,58.343,158.865,59.914,153.948,59.914"/>
<path fill="#051D49" d="M175.804,44.481c0,4.573,2.799,7.921,7.784,7.921c3.894,0,5.806-1.092,8.058-3.348l5.395,5.259
	c-3.618,3.62-7.102,5.601-13.52,5.601c-8.398,0-16.456-3.824-16.456-18.233c0-11.608,6.281-18.162,15.5-18.162
	c9.9,0,15.5,7.238,15.5,17.002v3.96H175.804z M188.504,34.58c-0.956-2.117-2.936-3.688-5.94-3.688c-3.005,0-4.985,1.571-5.941,3.688
	c-0.547,1.296-0.751,2.252-0.819,3.824h13.52C189.256,36.833,189.052,35.876,188.504,34.58"/>
<path fill="#051D49" d="M222.338,33.624c-1.367-1.366-2.528-2.117-4.711-2.117c-2.732,0-5.737,2.048-5.737,6.556v21.441h-8.877
	V23.928h8.672v3.413c1.708-2.048,5.124-3.823,8.945-3.823c3.483,0,5.942,0.887,8.4,3.346L222.338,33.624z"/>
<path fill="#051D49" d="M244.799,59.503c-7.237,0-10.311-5.121-10.311-10.175V31.711h-3.756v-6.761h3.756V14.435h8.878v10.516h6.281
	v6.761h-6.281v17.071c0,2.047,0.956,3.209,3.072,3.209h3.209v7.512H244.799z"/>
<path fill="#051D49" d="M274.839,59.503v-3.278c-2.322,2.458-5.6,3.687-8.877,3.687c-3.551,0-6.418-1.16-8.4-3.14
	c-2.865-2.869-3.619-6.214-3.619-10.107V23.927h8.879v21.51c0,4.848,3.072,6.486,5.871,6.486c2.801,0,5.941-1.639,5.941-6.486
	v-21.51h8.879v35.576H274.839z"/>
<path fill="#051D49" d="M331.922,59.503v-21.51c0-4.849-3.07-6.487-5.871-6.487c-2.73,0-5.939,1.638-5.939,6.283v21.714h-8.877
	v-21.51c0-4.849-3.072-6.487-5.873-6.487s-5.939,1.638-5.939,6.487v21.51h-8.879V23.927h8.672v3.276
	c2.322-2.389,5.6-3.686,8.879-3.686c3.957,0,7.168,1.433,9.422,4.506c3.006-3.142,6.215-4.506,10.65-4.506
	c3.555,0,6.762,1.161,8.74,3.142c2.869,2.865,3.895,6.211,3.895,10.104v22.74H331.922z"/>
<g>
	<g>
		<path fill="#95D600" d="M370,59.492h-20.318V10.946h19.5c9.479,0,15.002,5.318,15.002,13.636c0,5.387-3.547,8.864-6.002,10.023
			c2.932,1.364,6.682,4.433,6.682,10.911C384.863,54.583,378.66,59.492,370,59.492z M368.432,19.4h-9.271v11.183h9.271
			c4.023,0,6.271-2.251,6.271-5.591C374.703,21.65,372.455,19.4,368.432,19.4z M369.047,39.104h-9.887v11.932h9.887
			c4.295,0,6.338-2.727,6.338-6.001C375.385,41.765,373.342,39.104,369.047,39.104z"/>
		<path fill="#95D600" d="M409.699,59.492v-3.068c-2.385,2.387-4.635,3.409-8.727,3.409c-4.021,0-6.955-1.022-9.068-3.136
			c-1.91-1.979-2.932-4.842-2.932-7.979c0-5.659,3.889-10.295,12.137-10.295h8.387v-1.772c0-3.887-1.91-5.591-6.613-5.591
			c-3.41,0-4.977,0.819-6.818,2.932l-5.66-5.523c3.477-3.817,6.887-4.909,12.82-4.909c9.953,0,15.135,4.228,15.135,12.546v23.387
			H409.699z M409.496,44.491h-7.023c-3.203,0-4.975,1.501-4.975,4.024c0,2.455,1.635,4.09,5.111,4.09
			c2.455,0,4.023-0.205,5.592-1.705c0.955-0.886,1.295-2.317,1.295-4.5V44.491z"/>
		<path fill="#95D600" d="M445.271,59.492V38.014c0-4.841-3.068-6.477-5.865-6.477c-2.795,0-5.932,1.636-5.932,6.477v21.478h-8.863
			V23.968h8.658v3.274c2.318-2.455,5.592-3.683,8.863-3.683c3.545,0,6.41,1.159,8.387,3.137c2.867,2.863,3.613,6.204,3.613,10.09
			v22.706H445.271z"/>
		<path fill="#95D600" d="M481.439,59.492l-8.727-14.795l-3.75,4.228v10.567H460.1V10.946h8.863v27.545l11.797-14.523h10.705
			l-12.684,14.319l13.639,21.205H481.439z"/>
	</g>
</g>
</svg>
